<?xml version="1.0" encoding="UTF-8"?>
<svg id="Layer_1" xmlns="http://www.w3.org/2000/svg" viewBox="0 0 300 300">
  <defs>
    <style>
      .cls-1, .cls-2 {
        stroke-width: 4.06px;
      }

      .cls-1, .cls-2, .cls-3, .cls-4 {
        stroke: #f9f5e3;
        stroke-miterlimit: 10;
      }

      .cls-1, .cls-3, .cls-5, .cls-4 {
        fill: none;
      }

      .cls-2, .cls-6 {
        fill: #bc2a3a;
      }

      .cls-7 {
        fill: #5a3b35;
      }

      .cls-3 {
        stroke-width: 11.17px;
      }

      .cls-8 {
        fill: #f9f5e3;
      }

      .cls-4 {
        stroke-width: 3.05px;
      }
    </style>
  </defs>
  <circle class="cls-7" cx="149.75" cy="149.75" r="149.75"/>
  <g>
    <circle class="cls-8" cx="53.11" cy="205.76" r="22.66"/>
    <circle class="cls-8" cx="247.39" cy="205.76" r="22.66"/>
    <path class="cls-8" d="M243.42,216.46c13.93-19.06,22.17-42.55,22.17-67.97,0-63.7-51.64-115.35-115.35-115.35s-115.35,51.64-115.35,115.35c0,25.42,8.24,48.91,22.17,67.97h186.34Z"/>
    <rect class="cls-8" x="52.82" y="188.49" width="194.58" height="32.58"/>
  </g>
  <g>
    <path class="cls-6" d="M110.19,108.92c0,7.13-5.87,12.72-16.67,12.72h-14.25c-2.36,0-3.23-.44-3.23-1.75,0-3.29,3.78-.88,3.78-8.44v-17.98c0-7.57-3.78-5.15-3.78-8.44,0-1.32.88-1.75,3.23-1.75h12.34c8.06,0,14.36,1.92,14.47,8.28.05,3.23-1.65,5.7-4.77,7.02,5.92,1.43,8.88,5.37,8.88,10.36ZM88.87,95.87c0,1.37,1.7,1.26,2.69,1.26,3.67,0,5.7-1.43,5.7-4.33s-2.47-5.59-6.52-5.59c-.99,0-1.86.38-1.86,1.54v7.13ZM100.38,110.67c0-4.99-3.4-9.38-9.59-9.38-1.48,0-1.92.38-1.92,1.59v10.96c0,2.69.66,3.84,4.55,3.84,4.71,0,6.96-2.25,6.96-7.02Z"/>
    <path class="cls-6" d="M139.58,114.18c-1.04,3.23-5.76,8-13.27,8s-13.16-5.32-13.16-12.94c0-8.5,6.91-14.47,14.31-14.47,6.91,0,10.58,4.22,11.24,8.88.11.82-.33,1.64-1.26,2.08-5.43,2.63-9.21,4.22-14.58,6.31,1.15,2.14,3.4,4.06,7.24,4.06,3.18,0,5.7-1.65,7.68-3.51,1.21-1.15,2.36-.11,1.81,1.59ZM121.1,104.97c0,1.15.22,2.63.49,3.51,2.52-.88,5.1-1.81,7.51-2.96.93-.44,1.86-.77,1.37-2.41-.88-3.07-3.29-4.88-5.76-4.22-2.3.55-3.62,2.85-3.62,6.09Z"/>
    <path class="cls-6" d="M165.56,99.98c0,2.52-1.26,4.06-2.91,4.06-2.91,0-2.74-3.07-5.48-3.07-1.75,0-3.29,1.75-3.29,5.32v7.57c0,4.99,2.69,3.62,2.69,6.25,0,1.26-.93,1.54-2.52,1.54h-8.88c-1.64,0-2.63-.38-2.63-1.59,0-2.58,2.74-1.21,2.74-6.2v-10.14c0-1.37-.82-2.19-1.7-2.96-.49-.38-1.04-.82-1.04-1.7,0-.99.49-1.43,1.81-2.03,2.14-.99,6.3-2.19,7.24-2.25.99,0,1.37.66,1.37,1.86v2.69c2.19-3.29,5.04-4.55,7.46-4.55,3.23,0,5.15,2.14,5.15,5.21Z"/>
    <path class="cls-6" d="M191.6,99.98c0,2.52-1.26,4.06-2.91,4.06-2.91,0-2.74-3.07-5.48-3.07-1.75,0-3.29,1.75-3.29,5.32v7.57c0,4.99,2.69,3.62,2.69,6.25,0,1.26-.93,1.54-2.52,1.54h-8.88c-1.64,0-2.63-.38-2.63-1.59,0-2.58,2.74-1.21,2.74-6.2v-10.14c0-1.37-.82-2.19-1.7-2.96-.49-.38-1.04-.82-1.04-1.7,0-.99.49-1.43,1.81-2.03,2.14-.99,6.3-2.19,7.24-2.25.99,0,1.37.66,1.37,1.86v2.69c2.19-3.29,5.04-4.55,7.46-4.55,3.23,0,5.15,2.14,5.15,5.21Z"/>
    <path class="cls-6" d="M221.87,95.32c1.7,0,2.69.38,2.69,1.54,0,2.41-2.41,1.37-4.17,5.92l-6.8,17.54c-3.12,8-5.81,12.83-12.99,12.83-3.4,0-7.24-1.81-7.24-5.65,0-2.14,1.37-4.28,3.89-4.28,3.67,0,3.07,5.76,6.25,5.76,1.64,0,2.96-1.86,2.96-4.33,0-1.04-.27-2.14-.71-3.34l-7.4-18.53c-1.75-4.55-4.17-3.51-4.17-5.92,0-1.26.99-1.54,2.52-1.54h9.43c1.7,0,2.69.38,2.69,1.54,0,2.41-3.07,1.37-1.32,5.92l4.55,11.68,4.33-11.68c1.75-4.55-1.26-3.51-1.26-5.92,0-1.26.99-1.54,2.52-1.54h4.22Z"/>
    <path class="cls-6" d="M77.74,167.68c-1.81,0-1.97,1.21-3.18,1.21-.99,0-1.75-.6-2.14-2.96-.49-3.07-.88-5.7-.99-8.17-.05-1.7.27-2.69,1.37-2.69s1.48.71,2.63,2.52c1.59,2.8,4.93,7.18,11.07,7.18,3.4,0,4.77-2.14,4.82-4.28,0-3.4-4.39-5.54-8.88-7.9-6.25-3.23-10.53-5.37-10.53-11.73s6.14-11.4,14.09-11.4c2.8,0,5.21.82,6.36.82,1.43,0,1.7-.82,2.91-.82.99,0,1.75.49,2.25,2.85.44,2.14.82,4.5.93,6.8.11,1.7-.33,2.74-1.59,2.74-.93,0-1.59-.82-2.8-2.58-1.86-2.63-4.71-5.98-8.66-5.98-3.07,0-4.77,1.75-4.77,4.22,0,3.12,2.74,4.93,8.66,8,6.52,3.34,11.29,5.54,11.29,11.51.05,7.51-7.24,11.79-14.75,11.79-4.06,0-6.74-1.15-8.11-1.15Z"/>
    <path class="cls-6" d="M148.19,141.91c1.7,0,2.69.38,2.69,1.59,0,2.36-2.36,1.37-4.33,5.81l-7.4,17.11c-.38.77-.77,1.48-3.29,1.92-2.25.38-2.96.11-3.4-.99l-5.37-14.2-5.04,13.27c-.33.77-1.32,1.48-3.02,1.92-2.52.6-3.29.11-3.73-.99l-7.29-17.98c-1.86-4.5-4.22-3.51-4.22-5.92,0-1.26.99-1.54,2.52-1.54h9.54c1.7,0,2.69.38,2.69,1.59,0,2.36-3.12,1.37-1.26,5.87l3.78,9.27,5.54-14.69c.33-.77.66-1.48,2.36-1.86,2.3-.55,3.07-.05,3.45,1.04l6.14,15.57,4-9.38c1.92-4.44-1.1-3.45-1.1-5.87,0-1.26.93-1.54,2.52-1.54h4.22Z"/>
    <path class="cls-6" d="M177.79,160.88c-1.04,3.23-5.76,8-13.27,8s-13.16-5.32-13.16-12.94c0-8.5,6.91-14.47,14.31-14.47,6.91,0,10.58,4.22,11.24,8.88.11.82-.33,1.64-1.26,2.08-5.43,2.63-9.21,4.22-14.58,6.31,1.15,2.14,3.4,4.06,7.24,4.06,3.18,0,5.7-1.65,7.68-3.51,1.21-1.15,2.36-.11,1.81,1.59ZM159.31,151.67c0,1.15.22,2.63.49,3.51,2.52-.88,5.1-1.81,7.51-2.96.93-.44,1.86-.77,1.37-2.41-.88-3.07-3.29-4.88-5.76-4.22-2.3.55-3.62,2.85-3.62,6.09Z"/>
    <path class="cls-6" d="M207.39,160.88c-1.04,3.23-5.76,8-13.27,8s-13.16-5.32-13.16-12.94c0-8.5,6.91-14.47,14.31-14.47,6.91,0,10.58,4.22,11.24,8.88.11.82-.33,1.64-1.26,2.08-5.43,2.63-9.21,4.22-14.58,6.31,1.15,2.14,3.4,4.06,7.24,4.06,3.18,0,5.7-1.65,7.68-3.51,1.21-1.15,2.36-.11,1.81,1.59ZM188.92,151.67c0,1.15.22,2.63.49,3.51,2.52-.88,5.1-1.81,7.51-2.96.93-.44,1.86-.77,1.37-2.41-.88-3.07-3.29-4.88-5.76-4.22-2.3.55-3.62,2.85-3.62,6.09Z"/>
    <path class="cls-6" d="M229.87,162.8c-.88,2.74-3.89,6.09-8.77,6.09-5.15,0-8.39-3.18-8.39-9.1v-3.45c0-4.11.05-7.84.16-10.42h-1.21c-1.65,0-2.08-.55-2.08-1.54,0-.82.33-1.64.99-2.25,2.03-1.97,4.99-4.33,7.46-5.7,1.43-.82,1.97-.88,2.3-.88.77,0,1.37.82,1.32,1.64-.16,1.59-.22,3.18-.27,4.82h5.43c1.04,0,1.97.38,1.65,2.19-.33,1.81-1.32,2.14-2.52,2.08l-4.61-.16v10.2c-.05,5.48.82,6.69,3.02,6.69,1.37,0,2.63-.6,3.84-1.48,1.15-.77,2.08.05,1.7,1.26Z"/>
  </g>
  <circle class="cls-2" cx="151.14" cy="47.12" r="27.92"/>
  <g>
    <path class="cls-8" d="M118.21,265.17c-.11,1.16-.18,1.87-.4,2.61-.16.5-.34.79-2.09.79h-9.82c-.77,0-1.19.03-1.19-.4,0-.71,1.45,0,1.45-2.69v-12.3c0-2.69-1.45-1.98-1.45-2.69,0-.42.42-.4,1.19-.4l9.61-.03c1.45,0,1.56.13,1.74.74.24.71.5,1.61.66,2.85.05.42.08.69-.26.77-.45.08-.61-.24-.98-.92-.79-1.66-1.9-2.53-3.85-2.53h-1.61c-3.04,0-3.41.4-3.41,1.24v3.43c0,1.32.84,1.29,2.11,1.29h1c3.04,0,2.46-.84,3.11-.84.24,0,.45.21.61.9l.45,1.74c.24,1.06.21,1.27-.13,1.37-.74.24-.87-2.27-4.04-2.3h-1c-1.27,0-2.11-.05-2.11,1.29v7.26c0,.98.37,1.35,3.35,1.35l2.19-.03c2.59,0,2.98-.61,3.62-2.14.4-.92.63-1.11.95-1.08.29.05.32.37.29.71Z"/>
    <path class="cls-8" d="M121.29,268.05c-.37-1.03-.63-1.72-.98-2.85-.05-.24,0-.45.24-.5.21-.05.42.11.63.34,2.27,2.56,3.64,2.77,4.99,2.77s2.67-.63,2.67-2.06c0-1.21-1.56-1.93-3.62-2.75-2.43-.92-4.7-1.79-4.7-3.93,0-2.3,2.06-3.43,4.07-3.43,1.35,0,2.14.24,2.8.29.34.05.45-.29.69-.29.32,0,.48.4.69.79.45.77.69,1.29.87,1.74.11.24.16.58-.03.71-.37.21-.71-.26-1.64-.98-1.03-.79-2.3-1.35-3.56-1.35-1.64,0-2.61.82-2.61,1.93,0,1.29,1.32,1.87,3.93,2.88,2.35.87,4.59,1.85,4.59,3.85,0,1.74-1.72,3.62-4.73,3.62-1.53,0-2.22-.5-2.75-.5-.42,0-.53.5-1,.5-.29,0-.26-.11-.55-.79Z"/>
    <path class="cls-8" d="M139.38,266.91c-.32.74-1.43,1.93-3.22,1.93-2.03,0-2.82-1.27-2.82-3.48v-.42c0-3.54.03-6.31.11-8.08h-1.16c-.4,0-.61-.11-.61-.45,0-.08-.03-.13.13-.32.98-1.19,1.74-1.9,2.48-2.53.26-.24.37-.18.58-.18.29,0,.32.16.29.55-.03.32-.05.55-.08,1.98h2.67c.4,0,.77-.05.63.5s-.53.58-.92.55l-2.4-.05c-.03,1.56-.08,4.01-.13,8.02-.05,1.4.21,2.53,1.79,2.53.77,0,1.66-.5,2.11-.95.32-.34.74-.03.55.4Z"/>
    <path class="cls-8" d="M142.02,267.68c0-.82.69-1.35,1.32-1.35s1.19.42,1.19,1.21-.63,1.29-1.29,1.29-1.21-.37-1.21-1.16Z"/>
    <path class="cls-8" d="M157.17,265.41c0,2.19,1.19,2.17,1.19,2.77,0,.26-.21.4-1.11.4h-2.32c-.92,0-1.11-.11-1.11-.4,0-.63,1.74-.61,1.74-2.77v-12.01c0-.84-.11-1.45-1.19-1.66-.79-.18-.92-.32-.92-.55,0-.21.08-.34,1.79-.98.55-.16,1.11-.34,1.48-.37.26-.03.45.03.45.45v15.13Z"/>
    <path class="cls-8" d="M174.25,258.31c-.03,6.36-3.17,10.53-7.15,10.53-1.93,0-3.25-.74-3.91-1.61-.37-.48.05-.9.55-.61,1.16.71,2.06.9,3.27.9,3.22,0,4.94-3.27,4.94-7.5-.84,1.72-2.9,2.93-4.78,2.93-3.33,0-5.75-2.8-5.75-6.15,0-3.91,2.82-6.97,6.41-6.97,3.96,0,6.41,3.41,6.41,8.47ZM163.45,255.67c0,2.98,1.66,5.7,4.49,5.7,2.4,0,3.96-1.87,3.96-4.49,0-3.01-1.53-5.97-4.59-5.97-2.53,0-3.85,2.11-3.85,4.75Z"/>
    <path class="cls-8" d="M177.46,260.36c.03-6.36,3.14-10.53,7.13-10.53,1.93,0,3.27.74,3.93,1.61.34.48-.08.9-.55.58-1.19-.69-2.06-.87-3.3-.87-3.22,0-4.94,3.27-4.91,7.47.84-1.72,2.88-2.9,4.78-2.9,3.3,0,5.75,2.8,5.75,6.12,0,3.93-2.82,7-6.44,7-3.96,0-6.41-3.41-6.39-8.47ZM188.23,263c0-3.01-1.66-5.7-4.49-5.7-2.38,0-3.93,1.85-3.93,4.49,0,2.98,1.5,5.97,4.57,5.97,2.53,0,3.85-2.11,3.85-4.75Z"/>
    <path class="cls-8" d="M192.59,264.77c-.26-.58.48-.87.79-.37,1.43,1.93,3.43,3.01,5.86,3.01,2.69,0,4.38-2.01,4.38-4.06,0-3.72-2.93-5.28-8.31-5.83-.24-.03-.37-.26-.32-.53l2.03-6.52c.05-.21.26-.4.48-.37,2.01.13,3.99.13,5.91,0,1.27-.11,1.32-1,1.82-1,.26,0,.37.21.34.63-.05.63-.21,1.11-.45,1.56-.18.29-.5.4-1.08.45-1.85.19-4.3.19-6.57.05l-1.24,4.33c5.97.77,9.4,2.88,9.4,6.68,0,3.14-2.38,6.05-6.23,6.05-3.41,0-5.83-1.9-6.81-4.07Z"/>
  </g>
  <path class="cls-1" d="M161.3,32.88c-5.39,5-13.79,4.69-18.79-.7"/>
  <path class="cls-1" d="M150.99,36.95c.85-13.99,12.87-24.62,26.86-23.77"/>
  <rect class="cls-5" x="86.21" y="225.95" width="131.63" height="20.19"/>
  <path class="cls-3" d="M75.79,215.49c18.62.05,18.57,16.3,37.19,16.35s18.66-16.19,37.28-16.14,18.58,16.3,37.2,16.35,18.67-16.19,37.29-16.14"/>
  <ellipse class="cls-8" cx="111.86" cy="218.07" rx="17.83" ry="13.04"/>
  <ellipse class="cls-8" cx="187.22" cy="218.07" rx="14.71" ry="13.04"/>
  <g>
    <path class="cls-6" d="M71.83,194.1c0-7.32,5.32-13.01,12.29-13.01,2,0,3.21.52,4.21.52.76,0,1.1-.45,1.69-.45.66,0,.9.38,1.31,1.83.28,1,.62,2.28.97,4.35.14.66,0,1.1-.52,1.17-.59.07-.9-.45-1.42-1.24-1.48-2.31-3.45-4.28-7.08-4.28-5.11,0-8.15,4.56-8.15,9.6,0,6.39,3.8,11.22,9.42,11.22,3.52,0,5.63-1.48,7.28-3.31.69-.76,1.48.07.83,1.1-.97,1.52-4.04,4.35-9.22,4.35-7.18,0-11.63-4.8-11.63-11.84Z"/>
    <path class="cls-6" d="M107.97,191.07c0,.9-.59,1.73-1.38,1.76-1.45.03-1.38-1.48-2.97-1.48s-2.97,2.14-2.97,5.18v4.52c0,3.31,1.59,2.69,1.59,3.9,0,.52-.48.66-1.35.66h-3.69c-.79,0-1.38-.14-1.38-.69,0-1.17,1.69-.55,1.69-3.87v-6.94c0-1.17-.14-2.04-1.07-2.59-.38-.24-.62-.45-.62-.79,0-.38.17-.59,1-.97,1.17-.55,2.35-.93,2.83-.97.45,0,.69.17.69.76l-.03,2.8c1.07-2.04,2.93-3.66,4.97-3.66,1.86,0,2.69,1.17,2.69,2.38Z"/>
    <path class="cls-6" d="M125.26,201.77c-.72,1.69-3.35,4.18-7.7,4.18-4.83,0-8.08-3.49-8.08-8.04,0-5.21,3.66-9.22,8.77-9.22,3.76,0,6.28,2.17,6.9,5.14.14.62,0,1.1-.79,1.42-3.73,1.45-7.39,2.69-11.39,4,.66,2,2.62,4.35,5.83,4.35,2.31,0,4.21-1.14,5.45-2.45.59-.62,1.35-.24,1,.62ZM112.53,195.69c0,.86.03,1.52.21,2.11,2.83-.93,5.52-1.83,8.04-2.8.55-.21.76-.55.66-1.17-.35-2.14-2.35-3.59-4.25-3.52-3.11.03-4.66,2.87-4.66,5.38Z"/>
    <path class="cls-6" d="M145.01,203.87c0,.86-1.35,1.97-2.9,1.97s-2.07-1-2.38-2.66c-1.45,1.79-3.83,2.76-5.83,2.76-4.21,0-6.63-2.35-6.63-5.28,0-3.31,2.97-5.59,7.18-5.59,1.45,0,2.42.14,3.73.45-.69-2.76-1.14-4.73-4.14-4.73-1.97,0-3.24.62-4.69,1.45-.66.41-1.21-.1-.76-.79.83-1.21,3.31-2.73,6.45-2.73,3.8,0,5.28,2.38,5.94,5.38l1.59,7.49c.38,1.76,1.1,1.86,1.76,1.86.38,0,.69.03.69.41ZM139.28,200.87c-.14-.79-.41-1.69-.72-3.21-.14-.83-2.42-1.14-3.49-1.14-3.04,0-4.66,1.45-4.63,3.76.1,2.24,1.66,3.94,4.25,3.94,2.38,0,4.87-1.83,4.59-3.35Z"/>
    <path class="cls-6" d="M176.38,202.01c.38,2.14,1.83,1.9,1.83,2.93,0,.52-.52.66-1.35.66h-3.69c-.79,0-1.35-.14-1.35-.69,0-1,1.79-.76,1.42-3l-1-5.73c-.48-2.73-.9-5.42-4-5.38-2.14.03-4.49,1.9-4.62,5.9l.03,4.35c0,3.31,1.62,2.69,1.62,3.9,0,.52-.52.66-1.35.66h-3.69c-.83,0-1.38-.14-1.38-.69,0-1.17,1.66-.55,1.66-3.87v-4.8c0-3.11-.79-5.59-3.8-5.52-2.42.03-4.8,2.11-4.8,6.32v4c0,3.31,1.59,2.69,1.59,3.9,0,.52-.48.66-1.35.66h-3.69c-.79,0-1.38-.14-1.38-.69,0-1.17,1.69-.55,1.69-3.87v-6.94c0-1.17-.14-2.04-1.07-2.59-.38-.24-.62-.45-.62-.79,0-.38.17-.59,1-.97,1.17-.55,2.35-.93,2.83-.97.45,0,.69.17.69.76l-.03,2.93c1.38-2.55,3.66-3.8,6.11-3.8,2.8,0,4.73,1.31,5.52,3.93,1.35-2.62,3.66-3.93,6.14-3.93,3.45,0,5.04,1.93,5.97,7.25l1.07,6.08Z"/>
    <path class="cls-6" d="M195.3,201.77c-.72,1.69-3.35,4.18-7.7,4.18-4.83,0-8.08-3.49-8.08-8.04,0-5.21,3.66-9.22,8.77-9.22,3.76,0,6.28,2.17,6.9,5.14.14.62,0,1.1-.79,1.42-3.73,1.45-7.39,2.69-11.39,4,.66,2,2.62,4.35,5.83,4.35,2.31,0,4.21-1.14,5.45-2.45.59-.62,1.35-.24,1,.62ZM182.56,195.69c0,.86.03,1.52.21,2.11,2.83-.93,5.52-1.83,8.04-2.8.55-.21.76-.55.66-1.17-.35-2.14-2.35-3.59-4.25-3.52-3.11.03-4.66,2.87-4.66,5.38Z"/>
    <path class="cls-6" d="M210.32,191.07c0,.9-.59,1.73-1.38,1.76-1.45.03-1.38-1.48-2.97-1.48s-2.97,2.14-2.97,5.18v4.52c0,3.31,1.59,2.69,1.59,3.9,0,.52-.48.66-1.35.66h-3.69c-.79,0-1.38-.14-1.38-.69,0-1.17,1.69-.55,1.69-3.87v-6.94c0-1.17-.14-2.04-1.07-2.59-.38-.24-.62-.45-.62-.79,0-.38.17-.59,1-.97,1.17-.55,2.35-.93,2.83-.97.45,0,.69.17.69.76l-.03,2.8c1.07-2.04,2.93-3.66,4.97-3.66,1.86,0,2.69,1.17,2.69,2.38Z"/>
    <path class="cls-6" d="M227.47,189.03c.79,0,1.35.14,1.35.66,0,.9-1.28.72-2.31,3.45l-4.56,11.74c-1.83,4.76-2.93,7.97-6.8,7.97-2.07,0-3.24-1.21-3.24-2.42,0-.93.62-1.79,1.59-1.83,1.42-.03,1.76,2.07,3.31,2.07,1.21,0,2.07-1.97,2.07-3.76,0-1.04-.31-1.86-.66-2.69l-4.38-11.08c-1.07-2.73-2.28-2.55-2.28-3.45,0-.52.48-.66,1.35-.66h3.87c.79,0,1.35.14,1.35.66,0,.9-2.04.72-.97,3.45l3.9,10.01,3.9-10.01c1.04-2.73-.73-2.55-.73-3.45,0-.52.52-.66,1.35-.66h1.9Z"/>
  </g>
  <path class="cls-4" d="M219.47,220.39c7.97-1.58,12.44,2.34,20.42,5.13"/>
  <path class="cls-4" d="M81.2,220.2c-7.97-1.58-12.44,2.34-20.42,5.13"/>
</svg>